<svg id="b5162e9e-2823-4c19-907c-4c0a60840bc1" data-name="Layer 1" xmlns="http://www.w3.org/2000/svg" width="651.97695" height="579.64718" viewBox="0 0 651.97695 579.64718"><path d="M340.61426,373.76129,315.83978,401.533c20.58137,8.73023,41.41509-3.38955,49.95521-9.46585a123.72971,123.72971,0,1,0-25.18073-18.30582Z" transform="translate(-274.01152 -160.17641)" fill="#e6e6e6"/><path d="M358.625,263.3428c25.55854-.26612,51.11383-.72306,76.67122-1.07026q12.78036-.17362,25.56125-.30439c7.34162-.07644,7.36039-11.49273,0-11.4161-25.55854.26612-51.11384.72306-76.67123,1.07026q-12.78036.17362-25.56124.30439c-7.34162.07644-7.36039,11.49273,0,11.4161Z" transform="translate(-274.01152 -160.17641)" fill="#fff"/><path d="M358.625,289.98037l103.29728-1.07026,29.37812-.30439c7.34165-.07606,7.36039-11.49236,0-11.4161l-103.29727,1.07026-29.37813.30439c-7.34165.07606-7.36038,11.49236,0,11.4161Z" transform="translate(-274.01152 -160.17641)" fill="#fff"/><path d="M358.625,316.61794l103.29728-1.07026,29.37812-.30439c7.34165-.07606,7.36039-11.49236,0-11.4161l-103.29727,1.07026-29.37813.30438c-7.34165.07607-7.36038,11.49237,0,11.41611Z" transform="translate(-274.01152 -160.17641)" fill="#fff"/><circle cx="9" cy="256.37526" r="9" fill="#e6e6e6"/><path d="M730.30061,470.85021l-5.0312,31.40224a13.61663,13.61663,0,0,1-17.94956,10.69588h0a13.61664,13.61664,0,0,1-7.40427-19.45279l16.3699-29.52456,63.28132-126.39719a22.12795,22.12795,0,0,1,25.08831-10.00345l6.70454,1.90632-9.97115,29.23873Z" transform="translate(-274.01152 -160.17641)" fill="#a0616a"/><polygon points="630.924 531.437 645.737 530.657 629.365 476.082 605.975 480.76 630.924 531.437" fill="#a0616a"/><polygon points="482.791 541.573 499.164 541.573 507.74 488.556 482.791 488.556 482.791 541.573" fill="#a0616a"/><path d="M782.75544,253.9064a44.18456,44.18456,0,0,0,88.35921.9373c.01308-.308.01308-.62936.01308-.9373a44.18615,44.18615,0,1,0-88.37229,0Z" transform="translate(-274.01152 -160.17641)" fill="#2f2e41"/><circle cx="571.6757" cy="46.8659" r="22.76256" fill="#2f2e41"/><path d="M843.31274,224.44208a22.75806,22.75806,0,0,0,27.49458-32.79916A22.75648,22.75648,0,1,1,834.29,218.37214,22.64574,22.64574,0,0,0,843.31274,224.44208Z" transform="translate(-274.01152 -160.17641)" fill="#2f2e41"/><circle cx="549.4447" cy="116.70396" r="25.52994" fill="#a0616a"/><path d="M841.7841,286.19625s2.339,29.62665,17.15227,35.86384l-57.694,53.0161-18.71157-8.57614,13.254-37.42313s30.40629-6.23718,17.93191-33.52488Z" transform="translate(-274.01152 -160.17641)" fill="#a0616a"/><path d="M743.54839,653.41071l42.101,2.33894,19.49121-146.57392L855.81777,654.97l50.67716-16.37262L856.59742,471.7526c-12.84726-46.15308-2.03858-96.87425,15.593-148.91286l-19.49121-5.45754-44.44,6.23718h0A25.81016,25.81016,0,0,0,785.74058,336.888c-10.94689,19.60026-18.86219,38.61582-12.4089,54.86022C747.45881,459.464,741.87983,552.00463,743.54839,653.41071Z" transform="translate(-274.01152 -160.17641)" fill="#2f2e41"/><path d="M868.29215,484.227l-10.827,29.903a13.61664,13.61664,0,0,0,10.51163,18.05808h0a13.61664,13.61664,0,0,0,15.90827-13.42242v-33.759l5.94674-141.22823a22.128,22.128,0,0,0-17.09071-20.91411l-6.78795-1.58385-5.45754,30.40629Z" transform="translate(-274.01152 -160.17641)" fill="#a0616a"/><path d="M910.23612,734.94815h0a13.765,13.765,0,0,0,13.75864-10.42051l.51813-2.07253a49.4194,49.4194,0,0,0-1.88475-29.89786L917.41,679.13911,901.817,686.156l-4.79843,33.05578A13.765,13.765,0,0,0,910.23612,734.94815Z" transform="translate(-274.01152 -160.17641)" fill="#2f2e41"/><path d="M731.72954,738.11346h0a11.729,11.729,0,0,0,11.40812.43946l29.689-16.72212a10.67146,10.67146,0,0,0,5.272-11.15258l-3.36436-19.06474H756.02276L729.28191,720.0612A11.729,11.729,0,0,0,731.72954,738.11346Z" transform="translate(-274.01152 -160.17641)" fill="#2f2e41"/><path d="M783.15687,247.948c6.92239,16.77739,24.81156,28.721,45.79318,28.721,17.96892,0,33.67506-8.75686,42.1646-21.82526.01308-.308.01308-.62936.01308-.9373a44.1873,44.1873,0,0,0-87.97086-5.95845Z" transform="translate(-274.01152 -160.17641)" fill="#2f2e41"/><path d="M705.34811,378.44867A123.49556,123.49556,0,1,0,641.205,486.79519c8.54012,6.0763,29.37384,18.19608,49.95521,9.46586l-24.77448-27.77168A123.19385,123.19385,0,0,0,705.34811,378.44867Z" transform="translate(-274.01152 -160.17641)" fill="#6c63ff"/><path d="M518.64809,358.07088c25.55854-.26611,51.11383-.72306,76.67122-1.07026q12.78036-.17363,25.56124-.30438c7.34163-.07644,7.3604-11.49274,0-11.41611-25.55853.26612-51.11383.72306-76.67122,1.07026q-12.78036.17362-25.56124.30439c-7.34162.07644-7.36039,11.49273,0,11.4161Z" transform="translate(-274.01152 -160.17641)" fill="#fff"/><path d="M518.64809,384.70845l103.29728-1.07026,29.37812-.30439c7.34165-.07606,7.36038-11.49236,0-11.4161L548.02621,372.988l-29.37812.30439c-7.34165.07606-7.36038,11.49236,0,11.4161Z" transform="translate(-274.01152 -160.17641)" fill="#fff"/><path d="M518.64809,411.346l103.29728-1.07026,29.37812-.30439c7.34165-.07606,7.36038-11.49236,0-11.4161l-103.29728,1.07026-29.37812.30439c-7.34165.07606-7.36038,11.49236,0,11.4161Z" transform="translate(-274.01152 -160.17641)" fill="#fff"/></svg>